<svg width="1250" height="143" viewBox="0 0 1250 143" fill="none" xmlns="http://www.w3.org/2000/svg">
<path d="M193.417 140.42C192.22 140.42 191.25 139.449 191.25 138.252L191.25 4.21218C191.25 3.01519 192.22 2.04484 193.417 2.04484L245.333 2.04484C246.53 2.04484 247.5 3.01519 247.5 4.21219L247.5 138.252C247.5 139.449 246.53 140.42 245.333 140.42L193.417 140.42Z" fill="#02BBA7"/>
<path d="M140.824 140.42C139.627 140.42 138.659 139.449 138.628 138.253C138.36 127.997 136.192 117.863 132.218 108.356C127.964 98.1787 121.72 88.9085 113.823 81.0833C105.926 73.2572 96.5314 67.0303 86.1663 62.7756C76.4671 58.7943 66.1056 56.6169 55.6046 56.3533C54.408 56.3233 53.4374 55.3558 53.4374 54.1588V3.93096C53.4374 2.73397 54.408 1.76188 55.6048 1.78029C73.2049 2.051 90.6044 5.61704 106.885 12.3001C123.835 19.2574 139.244 29.4585 152.23 42.3273C165.216 55.1965 175.525 70.4819 182.56 87.3142C189.317 103.479 192.926 120.763 193.202 138.253C193.22 139.449 192.248 140.42 191.051 140.42H140.824Z" fill="#02BBA7"/>
<path d="M53.4375 138.253C53.4375 139.45 52.4671 140.42 51.2702 140.42H2.16735C0.970353 140.42 0 139.45 0 138.253V58.2122C0 57.0152 0.970354 56.0449 2.16735 56.0449H51.2702C52.4671 56.0449 53.4375 57.0152 53.4375 58.2122V138.253Z" fill="#02BBA7"/>
<path d="M297.5 138.6V3.6H330.62L394.16 87.84V3.6H427.28V138.6H394.16L330.62 54.9V138.6H297.5Z" fill="black"/>
<path d="M436.862 138.6L485.822 3.6H536.582L585.542 138.6H550.262L541.982 113.94H480.242L472.142 138.6H436.862ZM489.062 87.48H533.162L515.162 33.84H507.062L489.062 87.48Z" fill="black"/>
<path d="M594.885 138.6V3.6H628.005L691.545 87.84V3.6H724.665V138.6H691.545L628.005 54.9V138.6H594.885Z" fill="black"/>
<path d="M779.608 138.6V32.4H735.867V3.6H856.468V32.4H812.727V138.6H779.608Z" fill="black"/>
<path d="M867.661 138.6V3.6H941.821C973.321 3.6 997.081 16.38 997.081 51.84C997.081 75.96 984.121 90.54 966.841 97.56L999.421 138.6H959.281L934.441 104.76H900.781V138.6H867.661ZM942.181 32.4H900.781V76.32H942.181C956.041 76.32 963.781 69.48 963.781 55.26C963.781 37.98 952.621 32.4 942.181 32.4Z" fill="black"/>
<path d="M1011.65 138.6V3.6H1044.77V138.6H1011.65Z" fill="black"/>
<path d="M1173.04 90L1205.44 96.48C1196.8 126.54 1171.24 142.2 1134.88 142.2C1089.7 142.2 1061.08 117.9 1061.08 71.1C1061.08 24.3 1089.52 0 1134.88 0C1172.32 0 1198.42 16.56 1206.34 48.6L1173.58 54.18C1168.54 37.62 1155.22 28.8 1134.88 28.8C1108.6 28.8 1094.56 44.28 1094.56 71.1C1094.56 97.92 1108.6 113.4 1134.88 113.4C1154.32 113.4 1167.46 105.12 1173.04 90Z" fill="black"/>
</svg>
